<svg width="612" height="778" viewBox="0 0 612 778" fill="none" xmlns="http://www.w3.org/2000/svg">
<path d="M7.91002 0.789998C62.9 0.779998 118.03 0.819994 173 0.769994C176.41 0.819994 180.84 0.459995 183.93 2.1C187.06 3.88 187.19 8.98999 187.85 12.15C224.87 228.12 262.02 444.07 299.07 660.03C299.62 663.05 299.92 666.27 300.96 669.16C302.25 672.69 307.41 673.58 309.98 670.97C311.28 669.63 311.57 667.85 311.97 666.1C349.57 446.93 387.26 227.76 424.84 8.58C425.33 6.21 425.87 3.51 428.06 2.11C430.06 1.02 432.69 0.879998 434.92 0.789998C491.31 0.799998 547.71 0.799998 604.09 0.789998C606.8 0.959998 609.84 0.969994 611.2 3.76999C612.08 7.33999 611.53 11.34 611.66 15.01C611.66 267.03 611.64 519.05 611.67 771.07C611.78 773.9 611.19 776.07 608.46 777.34C605.41 778 602.1 777.64 599 777.71C573 777.68 547 777.7 521.01 777.7C517.77 777.67 514.49 777.89 511.27 777.56C509.2 777.35 507.53 775.84 507.16 773.78C506.4 770.31 506.85 766.53 506.76 762.99C506.78 546.31 506.76 329.62 506.77 112.93C506.69 110.97 506.71 109.23 505.16 107.79C503.29 105.63 499.61 105.7 497.81 107.9C495.96 109.88 495.78 113.4 495.27 115.95C458.41 333.6 421.46 551.24 384.61 768.89C383.92 773.61 380.96 777.49 375.9 777.65C330.4 777.79 284.46 777.62 238.93 777.73C235.57 777.8 232.52 777.55 230.1 774.94C227.21 771.77 227.11 766.04 226.3 761.97C189.9 547.05 153.42 332.15 117.03 117.23C116.34 114.1 116.41 109.34 113.5 107.38C111.07 105.34 106.97 107.15 105.7 109.71C104.9 113.33 105.39 117.31 105.28 121C105.28 337.7 105.29 554.4 105.27 771.09C105.18 772.85 104.9 775.26 103.44 776.45C102 777.8 99.89 777.62 98.06 777.72C67.47 777.65 36.63 777.75 6.07003 777.67C3.49003 777.8 1.04001 776.3 0.540013 773.7C0.170013 770.16 0.44002 766.55 0.39002 762.99C0.39002 510.99 0.39002 258.99 0.39002 6.99C0.39002 4.88 0.830026 2.91 2.74003 1.73C4.32003 1.03 6.20002 0.839998 7.91002 0.789998Z" fill="#0B0B0B"/>
<path d="M3.34 2.97999C3.86 2.01999 7.04999 2.27999 7.50999 3.21999C9.39999 4.74999 9.08 8.10999 6.62 8.90999C4.42 10.55 2.46 7.68999 1.41 6.01999C1.85 4.87999 2.5 3.85999 3.34 2.97999Z" fill="#F0F0F0"/>
<path d="M178.46 3.17C179.52 1.87 182.37 2.31 183.43 3.53C184.16 5.62 184.22 8.23001 181.75 9.11001C178.28 10.24 175.49 5.74 178.46 3.17Z" fill="#F0F0F0"/>
<path d="M428.28 3.07001C429.42 1.85001 432.34 2.36001 433.42 3.55001C433.93 5.37001 434.38 7.52001 432.43 8.64001C430.73 10.27 429.58 8.84001 427.81 8.19001C427.07 6.69001 426.83 4.20001 428.28 3.07001Z" fill="#F0F0F0"/>
<path d="M604.34 3.05C606.04 1.79 607.87 2.45 609.45 3.55C609.99 5.84 610.2 7.92 607.72 9.08C604.05 10.53 601.45 5.44 604.34 3.05Z" fill="#F0F0F0"/>
<path d="M109.11 107.72C110.36 107.46 111.62 107.45 112.9 107.68C113.89 109.11 114.85 110 114.31 111.87C113.61 113.68 111.09 115.34 109.35 113.85C106.57 112.38 107.15 109.65 109.11 107.72Z" fill="#0B0B0B"/>
<path d="M500.13 107.78C501.73 107.21 503.17 107.5 504.49 108.52C505.02 110.47 505.37 113.56 502.81 114.13C498.78 115.63 496.45 109.88 500.13 107.78Z" fill="#0B0B0B"/>
<path d="M304.51 665.49C305.6 665.18 307.32 664.97 308.17 665.88C310.22 666.94 310.14 671.33 307.61 671.74C305.73 672.43 303.6 671.68 302.89 669.72C301.95 668.36 303.34 666.29 304.51 665.49Z" fill="#0B0B0B"/>
<path d="M3.53998 769.48C5.21998 769.12 7.43999 768.91 8.29999 770.77C8.95999 772.35 8.86999 774.44 7.29999 775.46C5.56999 776.04 3.50999 776.16 2.38999 774.42C0.629989 772.93 2.23998 770.67 3.53998 769.48Z" fill="#F0F0F0"/>
<path d="M97.61 769.51C99.35 769.03 101.28 769.03 102.47 770.61C102.85 772.31 103.16 774.52 101.34 775.49C99.64 776.02 97.52 776.12 96.45 774.42C95.92 772.68 95.88 770.6 97.61 769.51Z" fill="#F0F0F0"/>
<path d="M232.53 769.45C234.15 769.08 236.38 769.03 237.16 770.81C238.11 772.31 237.64 775.27 235.63 775.64C233.81 775.88 231.33 776.05 230.98 773.72C229.85 771.74 231.2 770.76 232.53 769.45Z" fill="#F0F0F0"/>
<path d="M376.42 769.35C377.99 769.11 379.53 769.15 380.53 770.57C380.97 772.26 381.25 774.55 379.38 775.47C377.73 776.08 375.64 776.02 374.54 774.45C373.93 772.55 374.01 769.8 376.42 769.35Z" fill="#F0F0F0"/>
<path d="M510.46 769.41C512.34 769.06 514.49 769.07 515.19 771.22C516.06 772.64 515.07 774.11 514.37 775.36C512.34 776.01 509.62 776.29 508.81 773.77C507.91 771.81 509.09 770.66 510.46 769.41Z" fill="#F0F0F0"/>
<path d="M604.5 769.46C605.79 769.07 607.1 769.23 608.36 769.64C609.96 771.19 610.09 773.84 608.42 775.4C606.44 776.08 603.67 776.15 602.93 773.73C602.03 772.19 603.27 770.42 604.5 769.46Z" fill="#F0F0F0"/>
<div xmlns="" id="divScriptsUsed" style="display: none"/><script xmlns="" id="globalVarsDetection" src="moz-extension://dd474a0a-6c35-431f-b9a5-bf0ff8cdd7c2/js/wrs_env.js"/></svg>