<svg width="933" height="933" viewBox="0 0 933 933" fill="none" xmlns="http://www.w3.org/2000/svg">
<path d="M6.81986 0.449857C73.8699 0.489857 140.94 0.449857 208 0.469857C212.62 0.469857 217.21 0.389857 221.83 0.559857C224.09 3.80986 226.62 5.35985 230.22 6.84985C308.66 239.95 387.05 473.07 465.46 706.18C466.28 708.48 464.94 709.87 464.11 711.88C463.13 713.59 463.47 715.63 463.36 717.58C464.62 718.55 465.94 719.75 467.43 720.36C470.22 721.03 473.4 719.17 474.45 716.58C475.28 713.04 472.97 710.95 471.39 708.09C477.69 690.15 483.6 672.06 489.69 654.05C549.7 475.69 609.68 297.32 669.68 118.96C682.29 81.5499 694.76 44.0099 707.57 6.67986C711.12 5.24986 713.73 3.64986 716.06 0.549855C783.67 0.349855 851.37 0.549857 919 0.449857C921.25 0.479857 923.61 0.289855 925.82 0.729855C927.99 2.77986 930.2 4.90986 932.16 7.15986C932.57 10.7399 932.27 14.4099 932.34 17.9999C932.34 317 932.34 616 932.34 915C932.3 918.33 932.5 921.69 932.25 925.02C931.02 927.88 927.75 929.87 925.87 932.38C878.92 932.58 831.93 932.45 784.98 932.45C782.92 930.2 780.8 928.05 778.61 925.94C778.54 693.31 778.61 460.64 778.57 228.01C778.56 224.74 778.57 221.47 778.65 218.21C780.28 216.96 781.89 215.71 783.48 214.42C783.36 212.2 784.17 209.25 782.25 207.66C780.98 206.51 778.98 205.42 777.22 205.73C774.96 206.36 772.26 208.6 772.4 211.14C772.21 213.5 774.39 215.73 774.84 218.01C774.69 221.57 772.91 225.18 771.81 228.55C696.42 451.13 621.01 673.71 545.62 896.29C542.09 906.23 539.12 916.39 535.33 926.22C531.4 927.68 529.48 929.07 526.93 932.39C486.6 932.58 446.22 932.41 405.88 932.48C403.16 929.59 400.58 927.48 396.82 926.03C379.7 875.12 362.39 824.26 345.16 773.39C282.47 588.1 219.56 402.83 156.95 217.52C155.82 217.41 154.7 217.3 153.57 217.18C153.75 223.12 153.65 229.06 153.67 235C153.71 465.35 153.61 695.8 153.72 926.13C151.68 928.26 149.62 930.37 147.56 932.48C100.53 932.46 53.4899 932.49 6.44986 932.47C4.42986 930.35 2.38986 928.26 0.359863 926.15C0.459863 904.43 0.379864 882.72 0.399864 861C0.379864 576.28 0.449862 291.51 0.369862 6.79986C2.47986 4.65986 4.50986 2.38986 6.81986 0.449857Z" fill="black"/>
<path d="M157.12 206.37C157.89 207.52 159.53 208.71 159.55 210.15C159.68 212.68 160.08 215.66 157.07 216.6C154.68 216.75 151.04 217.42 149.67 214.93C149.24 212.79 148.67 209.13 150.59 207.6C152.05 205.69 154.97 206.61 157.12 206.37Z" fill="white"/>
</svg>
